<?xml version="1.0" standalone="no"?>
<!DOCTYPE svg PUBLIC "-//W3C//DTD SVG 20010904//EN"
 "http://www.w3.org/TR/2001/REC-SVG-20010904/DTD/svg10.dtd">
<svg version="1.0" xmlns="http://www.w3.org/2000/svg"
 width="501.000000pt" height="648.000000pt" viewBox="0 0 501.000000 648.000000"
 preserveAspectRatio="xMidYMid meet">

<g transform="translate(0.000000,648.000000) scale(0.100000,-0.100000)"
fill="#000000" stroke="none">
<path d="M780 6453 c0 -33 -23 -155 -44 -233 -17 -60 -83 -193 -118 -237 -72
-90 -167 -170 -248 -210 -109 -53 -170 -71 -281 -79 l-89 -7 0 -1311 c0 -1364
4 -1500 44 -1676 8 -36 20 -110 26 -165 23 -216 95 -499 195 -767 182 -487
400 -819 744 -1136 222 -203 475 -358 776 -472 58 -22 111 -40 118 -40 6 0 24
-6 39 -14 14 -8 46 -17 70 -21 24 -4 59 -11 78 -15 19 -5 69 -15 110 -24 271
-53 311 -53 627 5 416 76 842 287 1149 568 201 184 285 277 396 441 93 139
158 250 225 385 71 143 81 169 173 436 73 213 86 263 139 509 45 215 50 246
71 475 18 195 20 303 20 1513 0 716 -2 1302 -5 1302 -3 0 -51 7 -108 15 -97
15 -190 39 -212 55 -5 4 -21 11 -35 15 -84 25 -251 180 -314 291 -51 93 -106
262 -113 352 l-6 72 -1713 0 -1714 0 0 -27z m3309 -156 c5 -13 12 -49 16 -80
4 -32 11 -60 16 -63 5 -3 9 -16 9 -30 0 -13 8 -43 19 -67 10 -23 23 -53 28
-67 37 -92 157 -237 237 -288 60 -38 169 -92 186 -92 8 0 35 -8 60 -17 25 -9
81 -19 125 -22 l80 -6 0 -1305 c0 -969 -3 -1331 -12 -1405 -7 -55 -20 -158
-29 -230 -14 -116 -37 -237 -65 -347 -5 -21 -13 -55 -18 -75 -24 -98 -102
-344 -111 -353 -3 -3 -11 -23 -19 -45 -7 -22 -22 -58 -31 -80 -10 -22 -23 -56
-31 -75 -18 -50 -144 -297 -177 -347 -57 -88 -165 -238 -174 -241 -4 -2 -8 -8
-8 -14 0 -5 -6 -15 -12 -23 -7 -7 -32 -35 -55 -61 -50 -60 -102 -114 -107
-114 -3 0 -24 -19 -48 -42 -97 -95 -258 -228 -276 -228 -6 0 -12 -3 -14 -8
-12 -27 -244 -156 -393 -217 -38 -16 -72 -32 -75 -35 -5 -6 -57 -22 -130 -41
-19 -5 -66 -17 -105 -28 -259 -70 -486 -97 -612 -71 -26 5 -100 19 -163 31
-63 12 -158 34 -211 50 -53 16 -103 29 -112 29 -9 0 -38 10 -64 21 -27 12 -57
26 -68 30 -169 68 -422 213 -526 303 -20 17 -58 49 -85 71 -117 97 -231 208
-278 271 -17 23 -57 75 -88 116 -32 42 -58 80 -58 86 0 6 -4 12 -8 14 -12 4
-72 94 -72 107 0 5 -6 14 -14 18 -15 9 -176 332 -176 354 0 8 -4 19 -8 25 -11
12 -67 148 -83 199 -6 22 -16 49 -20 60 -33 78 -121 424 -136 535 -2 19 -13
96 -23 170 -40 286 -41 364 -38 1650 l3 1245 70 6 c96 9 154 20 161 30 3 5 16
9 30 9 21 0 59 15 74 30 3 3 25 15 50 27 77 39 110 63 167 122 24 25 43 48 43
52 0 4 6 14 13 21 67 71 137 247 162 410 l6 38 1572 3 c865 1 1578 3 1585 5 7
1 16 -8 21 -21z"/>
<path d="M935 6173 c-28 -233 -127 -421 -280 -532 -78 -56 -166 -99 -215 -103
-3 0 -26 -7 -52 -14 -26 -8 -50 -14 -55 -13 -4 1 -41 1 -80 0 l-73 -1 0 -1206
c0 -747 4 -1242 10 -1302 6 -53 15 -137 22 -187 6 -49 12 -101 14 -115 1 -14
5 -38 8 -55 3 -16 8 -52 11 -79 4 -28 8 -53 10 -57 3 -3 7 -28 10 -55 4 -26 8
-51 10 -54 2 -3 20 -69 40 -145 129 -493 301 -854 547 -1146 29 -34 81 -97
116 -138 35 -41 87 -95 115 -119 29 -24 65 -55 80 -68 15 -14 32 -22 37 -19 6
3 10 0 10 -7 1 -7 17 -25 38 -39 20 -15 71 -51 113 -80 101 -72 96 -69 241
-143 206 -104 436 -176 676 -212 20 -3 44 -7 52 -9 83 -24 239 -21 344 6 21 6
40 8 43 6 2 -3 19 -1 36 4 18 4 52 11 76 14 71 9 258 66 406 125 165 66 395
196 377 214 -4 4 -2 6 3 5 13 -4 75 33 70 41 -2 4 2 7 9 7 12 0 181 131 234
182 15 14 54 57 87 96 33 38 66 76 73 83 7 8 9 18 6 24 -4 6 -3 8 3 5 11 -7
79 75 154 183 179 258 313 565 417 955 45 171 49 187 58 241 3 21 8 42 10 46
2 3 7 30 10 60 9 87 11 102 17 118 7 18 17 105 23 185 2 33 9 93 14 133 12 89
14 2488 2 2496 -5 3 -42 6 -83 7 -41 1 -95 8 -122 15 -26 7 -50 13 -52 13 -48
7 -131 46 -205 97 -116 81 -225 247 -256 389 -1 6 -6 28 -12 50 -6 22 -14 66
-17 98 l-7 57 -1558 0 -1558 0 -7 -57z m2022 -318 c19 -14 43 -69 43 -101 0
-6 -13 -11 -29 -12 -23 0 -30 5 -35 24 -8 29 -30 27 -34 -2 -2 -14 7 -25 32
-37 64 -30 90 -106 66 -191 -13 -49 -32 -70 -69 -79 -44 -11 -76 20 -91 89 -9
39 -3 49 31 57 24 6 27 3 33 -24 7 -39 30 -33 34 8 3 27 -3 35 -40 60 -32 21
-45 38 -51 66 -12 51 -1 104 28 133 28 28 52 30 82 9z m-1915 -54 c-6 -89 2
-94 27 -13 l23 72 44 0 c50 0 50 1 1 -111 -15 -34 -14 -43 11 -153 15 -64 30
-116 33 -116 3 0 9 26 12 58 7 57 9 71 27 167 5 28 12 74 15 103 l7 53 41 -3
41 -3 12 -75 c6 -41 19 -122 28 -180 9 -58 19 -113 22 -122 4 -15 -1 -18 -30
-18 -29 0 -36 4 -36 19 0 37 -12 51 -41 51 -26 0 -29 -3 -29 -35 l0 -35 -69 0
-69 0 -11 50 c-6 28 -11 61 -11 72 0 13 -4 18 -9 13 -15 -17 -40 -105 -34
-120 4 -12 -3 -15 -31 -15 l-36 0 0 200 0 200 33 0 33 0 -4 -59z m508 44 c20
-25 25 -109 7 -143 -13 -26 -13 -32 0 -45 21 -20 27 -85 14 -135 -14 -50 -36
-62 -112 -62 l-49 0 0 200 0 200 64 0 c45 0 67 -4 76 -15z m115 -129 c0 -107
3 -148 13 -158 11 -11 16 -10 28 6 10 15 14 54 14 158 l0 138 31 0 31 0 -4
-169 c-3 -163 -4 -169 -30 -203 -21 -28 -32 -34 -57 -32 -18 1 -38 8 -46 14
-30 25 -45 109 -45 252 l0 138 33 0 32 0 0 -144z m289 121 c20 -30 23 -174 5
-213 -9 -18 -26 -32 -46 -39 -32 -9 -33 -10 -33 -67 0 -58 0 -58 -30 -58 l-30
0 0 200 0 200 60 0 c51 0 62 -3 74 -23z m161 1 c2 -13 16 -95 30 -183 14 -88
28 -168 31 -177 4 -15 -1 -18 -30 -18 -29 0 -36 4 -36 19 0 37 -12 51 -41 51
-26 0 -29 -3 -29 -35 0 -33 -2 -35 -35 -35 -39 0 -42 9 -26 83 5 23 14 76 21
117 6 41 16 103 21 138 l11 62 39 0 c32 0 39 -4 44 -22z m225 -28 l0 -49 -30
6 -30 6 0 -157 0 -156 -30 0 c-26 0 -30 4 -30 28 -1 15 -2 83 -3 152 l-2 125
-29 0 c-28 0 -29 2 -31 48 l-2 47 93 0 94 0 0 -50z m174 3 l-2 -48 -46 3 c-41
3 -46 1 -46 -17 0 -18 6 -21 45 -21 l45 0 0 -50 0 -50 -45 0 c-45 0 -45 0 -45
-35 l0 -35 49 0 49 0 -3 -47 -3 -48 -76 -3 -76 -3 0 201 0 200 78 0 78 0 -2
-47z m116 -55 c18 -57 36 -107 40 -111 4 -5 5 41 3 102 l-4 111 25 0 26 0 0
-200 0 -200 -23 0 c-21 0 -27 11 -57 103 -19 56 -37 106 -42 112 -5 5 -7 -40
-5 -103 l4 -112 -24 0 -23 0 0 200 0 200 23 0 c21 0 27 -11 57 -102z m564 55
l-2 -48 -46 3 c-41 3 -46 1 -46 -17 0 -18 6 -21 45 -21 l45 0 0 -50 0 -50 -45
0 c-45 0 -45 0 -45 -35 l0 -35 48 0 47 0 0 -50 1 -50 -78 0 -78 0 0 200 0 200
78 0 78 0 -2 -47z m96 -104 l0 -152 40 6 40 5 0 -54 0 -54 -70 0 -70 0 0 200
0 200 30 0 30 0 0 -151z m170 7 c0 -112 3 -146 14 -155 27 -22 36 21 36 163
l0 136 30 0 30 0 0 -157 c0 -137 -3 -162 -20 -199 -16 -32 -27 -43 -49 -46
-82 -12 -101 32 -104 244 l-2 158 33 0 32 0 0 -144z m237 106 c1 -20 5 -75 10
-122 l9 -85 7 63 c4 34 10 89 13 122 l6 60 39 0 39 0 0 -200 0 -200 -25 0 -25
0 -1 118 c-2 124 -4 120 -26 -55 -7 -49 -11 -58 -28 -58 -17 0 -21 9 -28 70
-25 221 -24 220 -26 68 l-1 -143 -25 0 -25 0 0 200 0 200 43 0 c42 0 42 0 44
-38z m314 -122 c14 -85 29 -174 32 -197 l5 -43 -34 0 c-32 0 -34 2 -34 35 0
32 -3 35 -29 35 -29 0 -41 -14 -41 -51 0 -15 -7 -19 -34 -19 -40 0 -39 -18 -6
185 10 61 21 134 25 163 l7 53 41 -3 42 -3 26 -155z m146 -1792 c-3 -1212 1
-1109 -56 -1379 -28 -134 -85 -294 -164 -464 -183 -392 -521 -752 -872 -927
-116 -59 -321 -129 -415 -143 -14 -2 -51 -9 -83 -15 -42 -8 -72 -8 -115 0 -31
7 -68 13 -82 15 -58 9 -241 63 -254 76 -6 5 -16 9 -24 9 -48 0 -261 123 -397
229 -72 56 -265 247 -265 262 0 5 11 3 25 -3 21 -10 29 -8 48 10 l22 20 95
-89 c87 -82 215 -176 330 -242 132 -76 379 -137 553 -137 248 0 500 76 687
208 36 25 67 48 70 51 3 4 21 18 40 32 19 15 68 58 109 97 73 69 75 70 98 55
22 -15 27 -15 56 -1 36 17 47 35 77 129 22 70 76 167 115 209 17 18 21 29 15
41 -9 15 -16 15 -72 3 -100 -21 -98 -22 -98 43 0 45 7 68 34 119 31 55 33 64
20 75 -40 33 -149 -88 -241 -267 -28 -54 -44 -75 -63 -79 -14 -3 -59 -39 -100
-79 -137 -134 -292 -233 -450 -288 -134 -47 -313 -60 -452 -33 -216 41 -387
135 -591 324 -48 45 -96 81 -106 81 -14 0 -31 22 -60 76 -106 196 -195 293
-241 264 -12 -8 -13 -13 -3 -27 47 -67 73 -157 58 -202 -7 -23 -13 -23 -127
-5 -57 9 -60 -16 -10 -70 40 -43 77 -106 92 -156 5 -14 15 -47 24 -75 l15 -50
-25 30 c-93 110 -239 368 -303 535 -18 47 -37 94 -41 105 -4 11 -18 54 -29 95
-12 41 -26 89 -31 105 -18 59 -37 151 -39 184 -1 19 -7 52 -13 75 -9 30 -13
352 -15 1169 l-4 1127 1631 0 1631 0 -4 -1122z m-3647 -523 c33 -19 100 -19
128 1 15 10 40 14 79 12 l58 -3 3 -42 3 -42 -31 9 c-21 6 -46 4 -83 -7 -65
-20 -118 -20 -182 -1 -44 13 -57 13 -110 0 -102 -25 -110 -24 -113 26 l-3 42
38 1 c21 1 52 5 68 9 49 13 118 10 145 -5z m3999 -1 c47 -14 57 -14 106 0 29
9 69 16 89 16 35 0 36 -1 36 -39 l0 -39 -52 -5 c-29 -3 -72 -11 -95 -18 -37
-11 -49 -11 -90 4 -59 21 -117 22 -173 2 -23 -8 -44 -15 -46 -15 -2 0 -4 20
-4 44 l0 44 48 10 c71 15 123 14 181 -4z m-4009 -115 c55 -23 96 -22 168 5 28
11 56 14 78 10 32 -6 34 -8 34 -49 l0 -43 -35 9 c-28 8 -47 6 -93 -10 -70 -25
-88 -26 -137 -5 -50 20 -99 20 -167 -1 -72 -23 -88 -17 -88 35 0 38 1 40 33
40 17 0 52 7 77 14 61 20 74 19 130 -5z m3996 0 l68 -21 67 22 c90 29 103 26
107 -28 l3 -42 -39 0 c-21 0 -60 -7 -86 -16 -45 -15 -53 -15 -107 0 -65 18
-116 20 -151 7 -13 -4 -35 -11 -50 -15 -27 -6 -28 -5 -28 37 l0 44 63 15 c82
21 75 21 153 -3z m-3996 -119 c78 -25 94 -25 150 1 34 15 56 19 88 14 42 -6
42 -6 42 -50 l0 -43 -32 7 c-42 9 -43 9 -106 -13 -55 -19 -122 -16 -148 5 -22
18 -74 18 -130 -2 -81 -29 -98 -24 -102 29 l-3 42 38 1 c21 0 56 6 78 14 54
18 54 18 125 -5z m3995 -1 l68 -21 67 22 c91 29 104 26 108 -29 3 -41 2 -43
-19 -38 -12 3 -49 -3 -82 -15 -61 -21 -71 -21 -187 10 -25 6 -49 5 -80 -4 -77
-23 -90 -20 -90 24 l0 39 63 15 c82 21 75 21 152 -3z m-3956 -129 c38 -11 51
-11 95 4 28 10 71 16 96 14 45 -3 45 -3 48 -43 l3 -40 -46 3 c-27 3 -65 -3
-95 -14 -44 -16 -56 -16 -102 -5 -66 17 -138 18 -203 4 -27 -6 -51 -10 -52 -9
-1 1 -5 21 -9 44 l-7 42 39 1 c22 0 48 4 59 9 26 12 117 6 174 -10z m3968 5
c56 -15 118 -12 129 6 3 5 25 9 50 9 l45 0 -3 -37 c-3 -32 -7 -38 -28 -41 -14
-1 -48 -10 -75 -18 -43 -14 -58 -15 -100 -4 -57 15 -140 17 -202 5 l-43 -8 0
42 c0 38 2 41 28 41 15 0 34 5 42 10 22 14 91 12 157 -5z m-3986 -122 c42 -15
53 -16 91 -4 24 7 69 16 100 18 62 5 62 6 72 -53 l5 -31 -45 5 c-30 3 -64 -2
-100 -14 -47 -16 -60 -17 -106 -5 -92 22 -121 23 -182 7 -33 -9 -61 -14 -64
-12 -2 3 -6 23 -9 45 l-6 41 39 0 c22 0 46 5 54 10 24 15 98 12 151 -7z m3981
3 c54 -13 124 -11 134 5 3 5 23 9 45 9 39 0 39 0 39 -40 0 -39 -1 -40 -34 -40
-19 0 -37 -4 -40 -9 -12 -18 -89 -21 -153 -5 -39 10 -79 13 -101 10 -20 -4
-57 -9 -81 -13 -42 -5 -44 -4 -38 18 4 13 7 32 7 42 0 12 8 17 28 17 15 0 34
5 42 10 21 14 90 12 152 -4z m-3981 -123 c43 -16 53 -16 96 -3 58 16 144 24
159 13 6 -4 15 -26 18 -49 l7 -41 -49 10 c-39 8 -59 7 -100 -6 -64 -21 -105
-21 -160 0 -44 17 -77 14 -169 -13 -22 -6 -23 -3 -23 41 0 34 3 46 13 42 7 -3
26 1 42 8 42 19 109 18 166 -2z m4044 5 c39 0 88 3 109 7 34 7 38 5 33 -10 -4
-9 -7 -27 -7 -39 0 -18 -10 -25 -53 -39 -67 -21 -82 -21 -163 -1 -62 16 -70
16 -140 -1 -40 -11 -76 -16 -80 -13 -3 4 -3 25 1 47 6 38 9 41 38 41 18 0 39
5 47 11 9 6 41 7 80 3 36 -3 97 -6 135 -6z m-4062 -123 c20 -8 52 -15 70 -15
19 0 51 7 70 15 63 26 167 13 167 -20 0 -7 3 -26 6 -43 l6 -30 -38 13 c-51 19
-115 19 -140 0 -25 -19 -102 -19 -147 0 -45 18 -80 18 -132 0 -21 -8 -40 -13
-41 -12 -1 1 -4 20 -6 43 -6 41 -6 41 36 51 62 15 110 15 149 -2z m3990 -1
c51 -17 102 -15 154 7 40 16 46 11 38 -34 -6 -30 -13 -37 -51 -52 -47 -18 -75
-17 -172 6 -45 10 -62 9 -113 -5 -32 -9 -71 -16 -85 -16 -25 0 -26 2 -19 38 4
20 8 37 8 37 128 37 176 41 240 19z m-3990 -119 c20 -8 52 -15 70 -15 19 0 51
7 70 15 47 19 97 19 147 -1 32 -13 42 -23 50 -52 5 -20 7 -38 5 -40 -3 -3 -28
2 -56 11 -65 21 -102 21 -141 1 -39 -20 -111 -20 -141 1 -25 17 -77 19 -126 5
-19 -5 -35 -9 -36 -7 -1 1 -5 19 -8 39 -5 36 -4 38 26 47 49 14 101 13 140 -4z
m3987 0 c54 -19 98 -19 145 1 l38 15 -7 -32 c-3 -17 -6 -37 -6 -44 0 -16 -82
-39 -117 -32 -15 3 -50 11 -77 17 -40 10 -60 9 -118 -5 -67 -16 -138 -14 -138
4 0 4 5 22 11 39 9 27 15 30 37 26 15 -3 47 2 72 10 60 19 108 19 160 1z
m-3980 -125 c31 -17 102 -14 140 5 42 22 74 21 143 -2 68 -24 73 -28 82 -70 8
-39 5 -40 -78 -12 -69 23 -122 22 -179 -5 -36 -17 -39 -17 -99 4 -46 17 -75
21 -110 17 l-48 -6 -3 37 c-3 36 -1 37 37 48 40 11 74 6 115 -16z m3987 4 c52
-15 99 -15 134 0 13 6 15 0 10 -36 -6 -40 -9 -44 -44 -52 -28 -7 -55 -5 -107
8 -67 18 -73 18 -145 1 -64 -15 -81 -16 -120 -5 -33 9 -44 17 -41 27 4 8 6 24
6 35 0 19 4 20 53 14 35 -5 65 -2 92 8 53 19 95 19 162 0z m-3995 -120 c16 -9
49 -16 72 -16 24 0 60 7 81 16 49 21 73 20 144 -4 31 -10 67 -17 78 -14 17 5
22 0 28 -27 6 -25 3 -35 -11 -46 -24 -17 -34 -17 -91 8 -56 24 -113 22 -185
-6 -36 -15 -52 -17 -70 -8 -56 26 -81 33 -118 33 -35 0 -39 3 -45 30 -4 16 -4
34 0 40 10 15 82 12 117 -6z m3773 -8 c46 0 79 4 89 13 17 14 70 11 146 -9 25
-6 60 -10 78 -8 17 2 32 2 32 0 0 -3 -5 -22 -12 -43 -10 -35 -14 -39 -45 -39
-18 0 -50 7 -70 15 -46 19 -89 19 -162 -1 -56 -16 -63 -16 -124 2 -36 10 -63
23 -61 29 23 65 24 67 40 54 10 -9 43 -13 89 -13z m-3779 -111 c37 -19 124
-19 150 0 26 19 98 19 136 -1 23 -12 48 -15 93 -12 61 5 62 5 73 -24 11 -29
10 -30 -36 -50 -46 -21 -47 -21 -101 -2 -71 24 -125 25 -179 2 -55 -23 -63
-22 -116 1 -23 11 -52 18 -63 15 -17 -5 -23 2 -36 40 l-16 46 33 0 c19 0 47
-7 62 -15z m3694 6 c0 -15 74 -21 130 -10 73 15 132 14 206 -2 l61 -14 -12
-35 c-14 -41 -33 -47 -84 -26 -42 16 -115 15 -148 -3 -31 -16 -109 -14 -145 5
-17 9 -47 14 -68 12 l-37 -3 15 35 c8 19 16 38 19 43 6 10 63 9 63 -2z m-2738
-108 c17 -27 38 -54 46 -62 7 -7 33 -53 57 -101 l44 -87 -30 -34 c-17 -19 -47
-52 -66 -73 -30 -32 -36 -46 -35 -78 2 -33 -1 -39 -16 -36 -12 2 -27 33 -52
106 -21 62 -49 122 -71 151 l-35 47 60 -8 c33 -5 66 -6 73 -3 19 7 17 143 -2
189 -21 49 -12 45 27 -11z m2120 -5 c-14 -14 -16 -141 -3 -167 10 -18 31 -19
106 -6 l40 7 -30 -21 c-16 -12 -26 -21 -21 -21 5 0 2 -8 -6 -17 -12 -15 -60
-122 -64 -145 -1 -5 -3 -11 -4 -15 -1 -5 -2 -16 -1 -25 1 -10 -3 -18 -9 -18
-6 0 -9 -4 -5 -9 3 -6 -3 -15 -14 -21 -18 -9 -20 -7 -17 17 1 18 -5 33 -16 41
-10 7 -16 18 -13 23 4 5 2 9 -4 9 -5 0 -26 29 -46 65 -20 36 -40 63 -46 60 -5
-4 -9 -2 -9 4 0 5 3 11 8 13 4 2 23 37 43 78 20 41 49 86 63 99 14 14 26 30
26 36 0 14 22 36 29 30 2 -3 -1 -11 -7 -17z m-3075 -13 c39 -17 139 -20 148
-6 11 19 90 23 129 7 48 -20 136 -21 162 -1 10 8 24 15 29 15 10 0 41 -68 33
-74 -1 -2 -34 -13 -71 -24 -61 -19 -72 -20 -110 -8 -67 22 -101 25 -143 15
-93 -22 -131 -27 -163 -21 -28 6 -36 14 -52 57 -10 28 -19 51 -19 53 0 6 24 1
57 -13z m3698 0 c64 -19 92 -19 164 1 55 16 63 16 123 -1 l65 -17 -13 -37 c-8
-22 -18 -34 -26 -31 -17 7 -149 3 -216 -5 -38 -5 -64 -3 -92 9 -48 19 -82 20
-132 2 -21 -8 -38 -12 -38 -9 0 2 11 25 24 51 21 42 29 48 58 50 19 1 56 -4
83 -13z m-3408 -124 c31 -16 125 -14 149 4 10 8 35 14 54 15 32 0 38 -5 62
-49 l27 -49 -36 10 c-38 10 -100 3 -120 -14 -14 -11 -91 -6 -170 11 -42 9 -59
9 -95 -4 -23 -8 -64 -15 -89 -15 -45 0 -48 2 -62 38 l-15 37 74 5 c40 3 78 10
84 16 14 14 108 11 137 -5z m3416 3 c48 -16 89 -15 162 5 39 10 110 6 133 -8
8 -5 9 -16 0 -43 -10 -34 -12 -35 -44 -28 -18 4 -52 3 -76 -2 -89 -20 -130
-21 -184 -2 -48 16 -59 17 -102 5 -65 -18 -121 -29 -126 -24 -2 2 6 22 18 43
13 26 28 40 41 40 11 1 31 7 45 15 33 19 76 19 133 -1z m-3125 -123 c19 -9 44
-35 59 -60 l25 -43 -33 7 c-19 4 -54 14 -78 22 -48 16 -72 14 -142 -13 -46
-18 -48 -18 -119 6 l-72 24 -69 -24 c-38 -13 -70 -21 -72 -19 -9 13 -27 62
-27 74 0 9 10 15 26 15 15 0 48 8 75 17 46 17 52 17 111 0 78 -22 121 -22 184
3 51 20 77 18 132 -9z m3125 3 c49 -16 87 -15 166 5 24 7 57 9 72 6 l27 -6
-15 -39 c-9 -22 -19 -38 -23 -35 -4 2 -41 -4 -84 -15 -77 -18 -78 -18 -147 2
-62 19 -74 20 -112 8 -23 -7 -46 -17 -52 -22 -14 -12 -62 -10 -100 6 l-35 15
18 30 c15 27 22 30 62 29 25 0 61 6 80 15 45 21 85 21 143 1z m-2473 -83 c38
-38 70 -66 71 -63 0 4 4 -3 9 -16 5 -12 18 -26 27 -30 28 -11 103 -64 103 -72
0 -4 12 -11 28 -15 15 -3 36 -15 47 -25 11 -10 23 -19 27 -20 18 -2 44 -14 61
-28 9 -8 17 -12 17 -8 0 3 16 0 35 -8 19 -8 35 -13 35 -11 0 2 15 -2 34 -10
38 -16 54 -19 191 -40 89 -14 109 -14 190 0 98 16 139 23 143 24 1 1 4 1 7 1
3 0 19 7 35 15 17 9 36 15 43 13 6 -1 23 4 37 12 14 7 27 13 30 13 3 -1 21 7
41 18 20 10 39 15 43 12 3 -4 6 -1 6 5 0 7 7 12 15 12 8 0 15 5 15 10 0 6 6
10 13 10 7 0 35 18 62 41 27 22 61 47 76 54 15 8 29 22 33 31 4 9 9 14 12 12
3 -3 36 25 73 63 45 46 73 67 83 64 16 -6 78 -78 78 -90 0 -4 9 -18 19 -31
l19 -25 -46 -47 c-26 -26 -51 -46 -55 -44 -5 1 -6 -2 -3 -6 3 -5 -6 -18 -20
-28 -14 -11 -43 -36 -65 -57 -64 -61 -130 -108 -142 -100 -7 3 -9 3 -5 -2 14
-15 -47 -51 -197 -114 -27 -12 -58 -26 -68 -32 -10 -5 -22 -7 -27 -4 -6 4 -10
1 -10 -6 0 -7 -3 -9 -6 -6 -4 3 -15 2 -26 -4 -10 -5 -35 -12 -56 -15 -20 -3
-50 -8 -67 -11 -52 -10 -334 -11 -373 -1 -20 5 -50 11 -66 14 -16 3 -41 11
-55 16 -14 6 -32 12 -39 14 -8 1 -21 6 -30 10 -9 4 -28 9 -41 11 -24 4 -112
48 -166 83 -16 11 -47 29 -68 40 -20 11 -50 32 -65 46 -15 13 -42 34 -60 45
-18 10 -30 24 -27 29 3 6 1 10 -6 10 -18 0 -119 89 -119 105 0 8 -9 16 -19 20
-11 3 -23 15 -26 26 -4 10 -11 19 -16 19 -6 0 -7 5 -4 10 4 6 12 7 18 4 7 -4
9 -4 5 1 -11 11 12 36 26 28 6 -3 8 -3 4 1 -7 8 0 18 39 60 12 13 19 27 16 30
-4 3 3 6 15 6 14 0 49 -27 92 -69z m-934 -43 c65 -21 67 -21 113 -3 70 27 102
29 167 7 34 -11 72 -18 86 -15 20 4 29 -2 46 -29 l21 -33 -41 -12 c-35 -11
-51 -10 -97 3 -94 27 -124 28 -167 5 -40 -21 -92 -28 -109 -13 -6 5 -29 15
-52 22 -34 10 -51 11 -82 2 -54 -17 -59 -16 -76 18 -15 30 -15 30 12 40 15 6
35 14 43 19 24 16 65 12 136 -11z m3401 7 c46 -19 96 -19 162 1 29 8 55 13 57
11 3 -3 -2 -23 -11 -45 -16 -38 -20 -42 -73 -53 -65 -14 -68 -14 -144 8 -55
15 -59 15 -116 -6 -73 -26 -80 -26 -169 2 l-72 23 21 32 c23 37 24 37 94 15
50 -16 54 -15 101 5 58 25 102 27 150 7z m-3384 -131 c46 -18 48 -18 95 0 68
27 103 30 156 12 58 -20 113 -20 159 -1 33 14 36 13 42 -4 3 -10 14 -26 25
-36 23 -21 26 -37 5 -29 -8 3 -44 -4 -80 -16 l-65 -22 -67 21 c-83 26 -114 26
-155 1 -42 -25 -79 -25 -148 1 -30 11 -65 19 -78 16 -18 -3 -26 2 -39 26 -14
29 -14 31 3 44 24 18 83 13 147 -13z m3114 5 c52 -22 92 -21 145 5 39 20 76
20 121 1 42 -17 104 -19 141 -5 14 5 26 8 26 6 0 -2 -12 -24 -26 -50 -25 -45
-27 -46 -74 -46 -27 0 -51 4 -54 9 -12 19 -82 22 -127 6 -72 -28 -95 -28 -164
-5 l-67 22 -70 -22 c-38 -12 -71 -20 -73 -18 -2 2 12 21 31 43 19 22 34 43 34
46 0 11 45 28 77 28 17 1 53 -8 80 -20z m-3153 -114 c34 -26 96 -28 149 -6 56
24 102 26 137 6 34 -20 133 -19 172 1 53 28 103 14 162 -45 l51 -51 -42 0
c-23 0 -45 5 -48 10 -8 13 -111 13 -136 -1 -27 -14 -122 -13 -150 1 -31 17
-110 15 -147 -4 -78 -40 -185 3 -215 87 -5 13 -1 17 21 17 15 0 35 -7 46 -15z
m3154 -7 l64 -22 63 22 c75 26 91 27 138 7 20 -8 50 -15 67 -15 l30 0 -26 -40
c-26 -39 -47 -50 -59 -30 -10 16 -115 12 -162 -6 -39 -15 -48 -15 -117 1 -74
17 -88 17 -178 -5 -46 -11 -128 0 -128 19 0 4 13 19 28 34 22 21 38 27 73 27
24 1 55 7 69 15 35 20 66 19 138 -7z m-2871 -113 c42 -18 135 -20 165 -4 12 6
43 11 70 11 27 0 55 -5 61 -11 6 -6 39 -11 72 -11 54 0 64 -3 89 -29 l27 -28
-46 -13 c-27 -8 -63 -10 -93 -6 -119 17 -149 18 -199 3 -48 -14 -57 -14 -134
4 l-82 20 -58 -21 c-32 -12 -65 -20 -73 -17 -7 3 -28 26 -45 52 -29 44 -30 46
-9 38 36 -13 110 -7 143 11 37 20 66 20 112 1z m2663 -11 c33 3 87 9 120 12
35 3 66 2 73 -4 27 -23 84 -24 152 -3 56 17 74 19 107 10 22 -5 38 -13 36 -17
-32 -65 -29 -62 -83 -62 -28 0 -57 -6 -63 -12 -16 -16 -129 -15 -144 0 -16 16
-96 15 -161 -2 -42 -11 -64 -12 -93 -4 -74 20 -150 21 -178 2 -43 -27 -40 -10
2 20 21 14 51 40 67 56 27 28 28 29 66 13 27 -10 56 -13 99 -9z m-2665 -110
c43 -18 133 -15 202 7 36 11 46 11 81 -5 44 -20 126 -18 198 4 l40 13 80 -59
c64 -48 75 -60 57 -62 -12 -2 -31 1 -41 7 -48 26 -112 32 -160 15 -66 -23
-110 -25 -143 -9 -34 18 -132 20 -162 3 -34 -18 -84 -20 -115 -5 -38 20 -106
29 -135 18 -20 -8 -29 -5 -51 18 -32 33 -33 41 -3 41 12 1 33 7 47 15 33 19
59 18 105 -1z m2564 0 c40 -16 64 -16 209 2 34 4 64 1 83 -6 42 -18 129 -16
166 4 37 18 63 21 63 6 0 -6 -21 -32 -47 -58 -40 -40 -55 -48 -90 -50 -23 -2
-55 3 -70 11 -34 17 -135 22 -161 8 -32 -17 -95 -19 -124 -5 -35 18 -136 17
-168 -1 -14 -8 -39 -14 -57 -15 -34 0 -83 18 -83 31 0 14 58 49 82 50 12 0 48
9 78 19 69 23 71 23 119 4z m-2545 -126 l74 -21 71 23 c68 22 72 22 113 5 53
-21 152 -21 184 -1 30 20 71 20 109 0 18 -10 59 -17 105 -18 62 -2 82 -7 108
-26 35 -26 40 -32 18 -24 -7 3 -37 -4 -67 -15 -67 -26 -76 -26 -153 1 l-63 22
-73 -23 -73 -23 -68 20 c-63 19 -71 20 -121 5 -91 -25 -96 -26 -159 -7 -47 14
-67 27 -90 55 -16 20 -29 40 -29 43 0 11 41 6 114 -16z m2274 2 c53 -26 102
-25 154 1 44 22 87 20 140 -7 35 -18 86 -18 131 1 47 19 92 19 151 -1 26 -9
56 -14 66 -11 29 8 25 -15 -9 -47 -27 -26 -33 -27 -62 -17 -45 15 -100 14
-155 -5 -48 -16 -59 -16 -155 9 -49 13 -61 13 -95 0 -67 -26 -119 -27 -169 -4
-55 26 -71 26 -135 1 -51 -20 -110 -27 -110 -12 0 4 17 15 38 24 20 9 59 32
87 52 58 42 67 43 123 16z m-2004 -115 c63 -19 117 -19 163 0 46 19 81 19 118
-1 42 -23 134 -23 168 -1 32 21 82 22 121 2 15 -8 53 -19 85 -24 31 -5 72 -16
91 -25 l35 -15 -36 -15 c-66 -28 -86 -29 -163 -6 l-76 23 -58 -22 c-73 -26
-87 -26 -156 0 l-56 22 -77 -23 -78 -22 -68 21 c-66 20 -68 20 -126 2 l-59
-18 -41 41 -40 41 57 1 c31 1 71 9 87 18 37 20 47 20 109 1z m2003 -5 c49 -26
101 -25 158 2 l45 22 71 -23 c74 -24 113 -23 191 5 28 10 45 10 73 2 l36 -12
-33 -33 c-21 -22 -41 -33 -60 -33 -16 0 -45 -7 -65 -15 -47 -20 -65 -19 -136
6 -56 20 -60 20 -105 4 -77 -28 -126 -30 -177 -6 -55 26 -67 26 -133 1 -63
-24 -88 -25 -135 -5 -20 8 -57 15 -82 15 -25 0 -62 -7 -82 -15 -38 -16 -71
-19 -98 -9 -13 5 -14 8 -3 15 7 5 23 9 35 9 12 0 59 16 105 35 81 35 85 35
143 24 55 -11 65 -10 105 9 58 26 101 27 147 2z m-1067 -100 c8 -5 11 -10 5
-10 -5 0 -17 5 -25 10 -8 5 -10 10 -5 10 6 0 17 -5 25 -10z m-929 -16 c57 -17
153 -14 172 5 16 16 79 13 104 -4 35 -25 93 -28 143 -9 56 22 108 21 184 -1
57 -16 60 -16 109 4 62 26 97 26 147 1 41 -21 93 -26 132 -11 13 4 70 5 128 0
82 -6 119 -4 168 8 66 16 108 14 178 -8 37 -11 49 -10 105 9 64 21 64 21 141
2 76 -18 79 -18 140 1 80 24 99 24 151 -3 46 -23 100 -25 132 -4 42 27 83 29
149 5 61 -22 66 -22 120 -7 31 8 56 14 56 13 0 -2 -29 -26 -65 -54 l-65 -51
-47 18 c-57 21 -94 19 -158 -8 -50 -21 -86 -18 -140 15 -26 16 -89 11 -144
-10 -46 -17 -113 -13 -138 7 -15 12 -92 6 -155 -12 -42 -12 -53 -12 -105 5
-74 24 -88 24 -146 3 -58 -22 -92 -22 -147 -3 -56 20 -95 19 -162 -4 -54 -18
-56 -18 -109 0 -67 23 -103 23 -178 3 -55 -16 -63 -16 -108 -1 -66 22 -110 23
-162 3 -53 -20 -84 -20 -136 0 -53 20 -84 22 -121 8 -60 -23 -109 -26 -155
-10 -24 9 -53 16 -65 16 -20 0 -93 48 -94 62 0 7 48 26 71 27 8 1 40 -6 70
-15z m575 -123 c57 -16 79 -17 110 -9 72 19 143 21 178 4 42 -20 103 -20 136
-1 28 16 136 20 144 6 13 -20 85 -23 136 -6 55 18 116 16 187 -6 38 -11 49
-11 94 5 40 15 63 17 107 11 85 -12 182 -10 228 5 38 12 46 12 94 -9 63 -27
111 -29 145 -7 26 17 120 22 144 7 10 -6 2 -16 -32 -40 -25 -17 -52 -31 -60
-31 -8 0 -37 -10 -65 -21 l-52 -21 -57 23 c-61 25 -125 28 -150 8 -19 -16
-131 -16 -160 -1 -30 16 -82 15 -133 -3 -23 -8 -55 -15 -70 -15 -15 0 -44 7
-63 15 -20 8 -54 15 -75 15 -22 0 -56 -7 -75 -15 -47 -19 -95 -19 -143 1 -42
18 -94 15 -166 -8 -43 -14 -50 -14 -104 4 -61 20 -99 20 -186 -2 -39 -9 -57
-9 -102 4 -69 20 -100 20 -158 -1 -42 -15 -55 -15 -100 -4 -82 20 -144 24
-168 11 -17 -9 -28 -7 -63 14 -24 13 -53 33 -66 43 -23 19 -23 19 44 15 42 -3
75 0 90 8 26 14 98 9 162 -11 38 -12 49 -11 105 8 77 27 59 26 144 4z m-16
-116 c53 -19 121 -19 183 0 43 13 52 12 110 -6 62 -20 157 -19 157 2 0 15 98
10 152 -8 45 -14 57 -15 97 -3 62 18 149 24 164 11 26 -21 95 -24 142 -6 33
12 60 15 98 11 150 -18 161 -18 213 0 53 18 54 18 106 -4 30 -12 62 -22 73
-22 43 0 -82 -47 -128 -47 -26 -1 -58 -8 -70 -16 -25 -16 -123 -15 -155 2 -29
15 -86 14 -129 -4 -19 -8 -51 -15 -70 -15 -18 0 -50 7 -70 15 -19 8 -50 15
-68 15 -18 0 -52 -7 -75 -15 -55 -19 -100 -19 -150 1 -42 17 -73 15 -168 -7
-46 -11 -59 -11 -106 5 -56 19 -92 18 -178 -5 -39 -10 -54 -9 -96 5 -56 18
-133 21 -148 6 -22 -22 -72 -12 -169 36 l-100 49 44 3 c24 2 61 -4 82 -12 51
-21 85 -20 134 3 50 24 71 25 125 6z m5 -123 c48 -21 102 -20 174 1 50 16 56
16 112 -3 71 -24 110 -25 151 -4 34 18 105 15 175 -7 36 -11 49 -10 101 5 61
19 93 18 189 -5 43 -11 58 -10 90 2 50 20 126 24 155 8 13 -7 43 -11 68 -10
86 4 30 -18 -175 -70 -87 -21 -125 -22 -181 -3 -46 15 -59 16 -101 5 -83 -22
-120 -23 -185 -7 -49 12 -72 13 -103 5 -73 -20 -133 -22 -169 -5 -38 18 -108
21 -136 6 -18 -9 -142 21 -255 64 -40 14 -40 15 -15 25 36 14 60 13 105 -7z
m265 -112 c12 -8 10 -10 -10 -10 -14 0 -32 5 -40 10 -12 8 -10 10 10 10 14 0
32 -5 40 -10z m315 -15 c52 -19 97 -19 142 0 40 17 110 20 133 5 13 -8 13 -9
0 -14 -20 -6 -86 -15 -188 -26 -73 -7 -257 1 -268 13 -3 2 8 9 23 15 63 25
104 26 158 7z"/>
<path d="M1276 5723 c-10 -64 -7 -93 9 -93 12 0 14 11 8 63 -3 34 -7 63 -8 65
-1 1 -5 -14 -9 -35z"/>
<path d="M1470 5741 c0 -25 4 -31 21 -31 16 0 20 5 17 27 -2 17 -10 29 -20 31
-14 3 -18 -3 -18 -27z"/>
<path d="M1470 5595 c0 -32 3 -36 23 -33 17 2 22 10 22 33 0 23 -5 31 -22 33
-20 3 -23 -1 -23 -33z"/>
<path d="M1880 5725 c0 -33 4 -45 13 -42 7 2 12 20 12 42 0 22 -5 40 -12 43
-9 2 -13 -10 -13 -43z"/>
<path d="M2066 5723 c-10 -64 -7 -93 9 -93 12 0 14 11 8 63 -3 34 -7 63 -8 65
-1 1 -5 -14 -9 -35z"/>
<path d="M3941 5729 c-1 -20 -4 -51 -7 -68 -5 -24 -3 -31 10 -31 12 0 16 10
15 43 -1 23 -5 53 -9 67 -7 23 -8 22 -9 -11z"/>
<path d="M2571 4957 c-6 -16 -11 -30 -11 -32 0 -2 -9 -29 -21 -60 -20 -53 -23
-56 -52 -54 -65 4 -137 -1 -137 -10 0 -6 27 -29 60 -52 69 -48 73 -64 40 -163
-11 -33 -20 -61 -20 -63 0 -10 21 2 75 42 33 25 67 45 76 45 10 0 45 -21 78
-46 34 -26 64 -44 66 -42 3 3 -4 31 -15 64 -34 101 -30 115 45 165 35 24 65
47 65 52 0 4 -40 7 -89 7 l-90 0 -16 58 c-8 31 -22 71 -29 87 l-14 30 -11 -28z
m123 -175 l68 -3 -55 -40 -56 -39 19 -53 c10 -28 21 -61 26 -71 5 -14 -12 -5
-54 27 l-62 48 -51 -41 c-28 -22 -53 -39 -55 -37 -2 2 5 30 16 63 l19 59 -37
32 c-20 18 -46 35 -57 39 l-20 7 20 8 c11 4 43 8 72 8 45 1 53 4 58 24 4 12
14 42 23 66 l16 43 21 -68 21 -69 68 -3z"/>
<path d="M1950 4695 l-35 -13 67 -1 c57 -1 69 -4 78 -22 20 -36 6 -49 -52 -49
-29 0 -71 -7 -93 -15 l-40 -14 73 -1 c77 0 86 -7 55 -45 -10 -11 -6 -8 10 7
25 26 31 28 75 21 46 -8 47 -9 50 -46 2 -23 -3 -48 -13 -63 -8 -13 -12 -24 -8
-24 10 1 65 75 87 118 16 32 16 33 -9 58 -30 30 -31 32 -3 61 l22 24 -40 -6
c-30 -5 -43 -3 -53 9 -17 20 -120 21 -171 1z"/>
<path d="M3053 4689 c-4 -15 -11 -19 -24 -15 -63 20 -64 20 -53 5 22 -29 23
-48 2 -75 l-21 -26 24 -45 c13 -24 33 -53 44 -63 20 -19 20 -18 20 33 l0 51
45 8 c43 8 46 7 95 -40 34 -32 40 -36 20 -12 -17 19 -33 36 -37 38 -5 2 -8 10
-8 18 0 11 18 14 78 15 l77 1 -50 13 c-27 7 -74 14 -102 14 -48 1 -53 3 -53
24 0 37 19 47 90 47 l65 1 -40 14 c-22 8 -69 15 -103 15 -56 0 -65 -2 -69 -21z"/>
<path d="M3245 4460 c3 -5 8 -10 11 -10 2 0 4 5 4 10 0 6 -5 10 -11 10 -5 0
-7 -4 -4 -10z"/>
<path d="M3678 4318 c-13 -29 -15 -54 -11 -132 3 -53 3 -96 -1 -96 -12 0 -86
83 -86 97 0 35 -78 119 -120 129 -65 14 -70 14 -70 -1 0 -50 56 -113 154 -176
38 -24 62 -59 49 -73 -2 -2 -36 7 -73 21 -68 24 -151 29 -140 8 3 -5 10 -10
15 -11 6 -1 39 -16 75 -33 l65 -30 -37 -1 c-51 0 -48 -14 10 -43 74 -38 112
-61 112 -69 0 -4 -11 -3 -24 3 -15 7 -30 8 -40 2 -18 -10 11 -33 162 -130 36
-24 70 -50 75 -58 13 -23 -1 -18 -46 19 -54 43 -80 56 -111 56 -36 0 -32 -14
9 -40 19 -12 51 -41 70 -65 20 -24 52 -51 71 -60 30 -14 63 -60 51 -71 -2 -2
-28 20 -58 50 -32 30 -68 55 -85 59 -35 6 -45 0 -24 -16 9 -7 44 -47 78 -89
37 -45 74 -81 88 -84 20 -5 24 -12 24 -46 l0 -40 -45 61 c-40 54 -118 112
-132 98 -2 -3 12 -26 31 -52 20 -25 36 -50 36 -55 0 -5 6 -15 14 -22 7 -8 21
-29 30 -46 9 -18 28 -38 41 -44 21 -9 25 -18 25 -52 -1 -47 -1 -47 -60 50 -34
54 -102 114 -108 95 -6 -17 99 -213 127 -240 24 -22 28 -32 24 -63 -3 -21 -8
-38 -12 -38 -3 0 -21 33 -39 74 -37 82 -96 156 -113 139 -7 -7 -2 -27 14 -64
46 -100 58 -131 53 -136 -2 -3 -14 13 -25 35 -18 35 -51 58 -65 45 -2 -2 6
-28 18 -56 13 -29 26 -69 29 -91 l6 -38 -33 38 c-19 22 -37 36 -41 32 -4 -3 0
-30 9 -60 8 -29 18 -74 21 -100 3 -26 17 -68 30 -94 18 -35 21 -52 15 -70 -15
-38 -27 -28 -33 29 -7 69 -35 153 -59 173 -26 24 -32 12 -20 -43 6 -26 13 -78
16 -115 3 -36 12 -80 21 -97 13 -25 13 -34 3 -51 -15 -23 -30 -27 -22 -6 5 13
-2 59 -21 152 -5 25 -38 64 -54 64 -8 0 -9 -5 -1 -19 5 -11 10 -65 10 -120 0
-55 5 -111 11 -125 9 -20 9 -29 -1 -41 -21 -26 -25 -17 -25 58 -1 53 -6 84
-21 112 -12 22 -24 40 -28 40 -12 0 -18 -249 -7 -277 8 -20 6 -29 -7 -41 -16
-14 -17 -9 -18 73 -1 84 -16 150 -35 150 -9 0 -13 -15 -10 -33 1 -5 -6 -47
-15 -95 -9 -48 -14 -108 -12 -134 5 -43 -4 -68 -23 -68 -4 0 -3 17 2 38 19 83
2 212 -28 212 -10 0 -12 -6 -8 -20 4 -11 0 -44 -8 -73 -24 -86 -39 -184 -32
-207 5 -15 1 -26 -11 -35 -28 -20 -33 -10 -19 32 28 82 27 211 -2 220 -6 2
-17 -23 -26 -59 -8 -35 -23 -89 -32 -121 -9 -33 -15 -75 -13 -95 2 -28 -2 -41
-19 -54 -24 -20 -38 -23 -27 -7 13 22 44 154 44 191 0 43 -15 88 -30 88 -5 0
-10 -15 -10 -32 -1 -18 -14 -67 -31 -108 -17 -41 -33 -102 -36 -135 -4 -45
-11 -64 -27 -77 -42 -34 -43 -18 -6 67 20 44 40 122 40 154 0 11 -5 32 -11 48
-9 24 -12 26 -20 12 -5 -9 -10 -25 -12 -35 -2 -11 -8 -29 -15 -41 -7 -12 -12
-28 -12 -35 0 -7 -14 -42 -30 -76 -17 -37 -30 -80 -30 -102 0 -30 -4 -40 -21
-45 -30 -10 -31 -3 -10 41 49 101 69 210 43 236 -9 9 -16 2 -29 -32 -10 -25
-37 -82 -60 -127 -24 -45 -43 -95 -43 -112 0 -24 -4 -31 -20 -31 -11 0 -23 -1
-27 -2 -5 -2 -8 9 -9 25 -1 15 -4 31 -8 35 -4 4 -112 8 -239 8 -191 1 -235 -1
-249 -13 -15 -13 -24 -13 -80 6 -62 21 -63 22 -94 89 -28 60 -31 74 -27 133 8
106 -14 142 -137 224 -55 37 -100 74 -100 82 0 10 -6 12 -20 8 -16 -5 -20 -2
-20 14 0 12 -29 51 -66 91 l-66 70 848 2 849 3 -4 115 c-3 113 -3 115 23 139
15 14 34 26 43 27 38 6 42 44 12 125 -12 32 -19 65 -16 74 8 20 57 20 57 0 0
-8 5 -15 10 -15 7 0 10 -36 8 -102 l-3 -101 -58 -20 -58 -19 2 -114 1 -114 29
0 28 0 -2 103 -2 102 73 23 72 24 0 104 c0 63 4 104 10 104 6 0 10 16 10 35
l0 35 -59 0 c-38 0 -61 -4 -64 -12 -4 -10 -6 -10 -6 0 -1 9 -151 12 -716 12
-711 0 -714 0 -725 -21 -9 -16 -7 -34 9 -84 26 -78 26 -94 4 -111 -35 -25 -43
0 -43 132 0 118 1 123 22 126 39 6 29 24 -42 72 -39 27 -69 50 -67 53 2 2 24
-5 48 -15 229 -99 551 -78 803 50 109 55 333 86 486 66 44 -6 50 -5 30 3 -40
18 -200 23 -291 10 -96 -14 -131 -25 -261 -80 -133 -56 -198 -74 -333 -92
-136 -18 -301 2 -426 51 -58 23 -77 18 -169 -47 -58 -42 -69 -66 -32 -71 32
-5 30 -42 -3 -42 l-25 0 0 -135 c0 -114 -2 -135 -15 -135 -8 0 -23 -4 -33 -9
-9 -5 -29 -14 -44 -20 -28 -10 -28 -11 -28 -105 0 -52 -4 -98 -10 -101 -6 -4
-7 18 -3 58 6 67 -13 132 -50 169 -19 19 -48 98 -41 110 3 4 0 8 -6 8 -7 0 -9
8 -5 21 14 44 12 71 -10 112 -27 49 -33 100 -16 140 6 16 11 52 11 80 0 39 8
68 30 110 32 62 37 83 19 89 -18 6 23 87 69 136 27 29 38 49 35 63 -3 10 0 19
6 19 6 0 11 7 11 16 0 9 26 42 58 73 58 56 89 111 54 95 -9 -4 -65 -10 -123
-13 -94 -5 -110 -9 -148 -34 -25 -17 -60 -55 -84 -93 -23 -36 -43 -61 -45 -55
-2 5 15 37 37 70 48 70 116 121 160 121 17 0 39 4 49 9 9 6 30 13 46 16 30 6
57 32 150 139 48 56 55 82 14 57 -12 -7 -49 -16 -82 -18 -74 -7 -120 -31 -166
-88 -52 -64 -60 -64 -60 0 0 43 5 59 26 85 15 17 24 33 21 36 -9 9 -77 -24
-83 -41 -3 -8 -15 -15 -26 -15 -32 0 -78 -29 -98 -63 -14 -22 -20 -50 -20 -89
0 -45 -3 -58 -15 -58 -12 0 -15 13 -15 59 0 67 -13 86 -28 42 -5 -15 -31 -55
-56 -89 -25 -33 -49 -74 -52 -91 -4 -20 -13 -31 -28 -33 -30 -4 -102 -149
-111 -223 -4 -30 -11 -55 -16 -55 -5 0 -9 -17 -9 -37 0 -21 -5 -55 -11 -76 -6
-21 -11 -73 -12 -115 -1 -50 -6 -77 -15 -80 -20 -6 -15 -142 9 -240 17 -66 19
-90 10 -104 -16 -26 -13 -85 8 -153 24 -81 48 -123 96 -169 33 -32 36 -38 18
-33 -13 3 -23 0 -23 -5 0 -28 75 -139 125 -186 64 -60 89 -72 148 -72 39 -1
41 -2 23 -15 -27 -21 -65 -19 -104 5 -32 20 -62 26 -62 13 0 -3 33 -39 73 -78
70 -71 154 -125 190 -125 13 0 17 -5 12 -18 -4 -15 7 -27 51 -55 31 -21 59
-37 63 -37 4 0 18 -12 32 -26 29 -31 110 -74 140 -74 30 0 128 29 173 52 21
11 48 17 60 14 12 -3 38 -1 58 4 32 9 41 7 93 -24 31 -19 70 -38 86 -41 25 -6
29 -11 29 -41 0 -26 -4 -34 -17 -34 -24 0 -106 -77 -127 -117 -22 -45 -20 -63
7 -63 13 0 28 -5 35 -12 9 -9 12 -6 12 15 0 36 39 115 59 119 9 2 127 2 263 0
l247 -3 49 -48 c28 -26 52 -56 54 -67 3 -17 6 -18 25 -9 22 11 22 12 4 46 -10
19 -41 52 -69 74 -63 50 -66 70 -12 79 32 5 45 2 61 -13 28 -26 77 -31 184
-18 50 6 109 11 133 12 51 0 54 9 7 26 -63 23 -37 37 108 55 48 7 66 24 25 24
-13 0 -30 5 -38 10 -25 16 0 29 85 45 43 9 80 17 82 19 2 1 -15 8 -37 15 -48
14 -51 27 -7 36 29 7 46 12 117 43 l25 11 -26 0 c-15 1 -29 8 -32 15 -6 16 72
58 132 71 40 9 30 25 -15 25 -24 0 -34 5 -34 15 0 8 6 15 13 15 8 0 38 13 68
30 30 16 63 30 74 30 17 0 17 2 5 10 -8 5 -25 10 -37 10 -28 0 -31 26 -4 35
10 3 26 14 36 25 10 11 26 20 37 20 10 0 18 4 18 9 0 5 10 12 23 17 18 6 15 8
-20 11 -55 5 -49 19 32 74 36 24 65 47 65 51 0 4 -13 5 -30 2 -47 -10 -38 19
20 63 106 82 101 75 53 67 -61 -8 -56 9 24 84 66 62 67 70 5 53 -17 -5 -32 -6
-32 -2 0 10 43 65 92 116 40 42 42 57 6 33 -24 -16 -68 -29 -68 -21 0 12 27
53 72 111 27 35 48 66 45 68 -2 2 -21 -7 -41 -21 -20 -14 -41 -25 -46 -25 -5
0 -22 -17 -39 -37 -27 -33 -31 -35 -31 -16 0 12 9 27 20 33 10 6 27 27 37 48
9 20 38 70 64 110 27 39 47 72 45 72 -17 0 -70 -38 -83 -58 -22 -36 -55 -72
-65 -72 -18 0 -6 54 18 83 27 32 117 208 110 215 -4 4 -24 -10 -47 -33 -5 -5
-27 -33 -48 -62 -36 -49 -39 -51 -44 -28 -2 14 1 30 8 35 7 6 23 39 35 73 12
34 33 90 45 125 21 55 22 63 8 60 -18 -3 -61 -71 -84 -133 -8 -22 -21 -40 -29
-40 -22 0 -24 52 -4 82 20 31 44 116 44 156 0 15 7 42 16 58 8 17 13 33 11 36
-12 11 -60 -71 -73 -124 -23 -88 -22 -87 -39 -73 -16 13 -21 85 -6 94 15 10
30 90 33 178 2 47 -1 84 -6 81 -18 -12 -46 -91 -46 -135 0 -55 -7 -78 -25 -78
-24 0 -36 82 -15 95 12 8 14 265 2 265 -19 0 -35 -60 -40 -147 -2 -51 -8 -93
-11 -93 -4 0 -15 14 -25 31 -15 25 -16 35 -6 58 11 27 6 143 -7 164 -4 6 -9
37 -12 70 l-6 60 -17 -35z m-2179 -85 c-3 -32 -11 -69 -16 -83 -12 -26 -100
-117 -107 -109 -2 2 -7 33 -10 69 -6 58 -5 69 16 100 19 28 31 36 61 38 24 2
41 10 47 23 6 10 12 19 13 19 2 0 0 -26 -4 -57z m278 22 c-19 -19 -38 -43 -42
-54 -3 -10 -22 -27 -43 -37 -41 -20 -132 -35 -132 -22 0 11 21 48 38 66 6 7
12 17 12 21 0 4 15 16 33 25 27 14 58 21 161 35 5 0 -7 -15 -27 -34z m-478
-201 c29 -56 24 -99 -20 -187 l-31 -61 -23 38 c-34 56 -39 106 -16 167 19 49
46 89 61 89 3 0 17 -21 29 -46z m401 -18 c-19 -18 -50 -52 -67 -74 -26 -32
-45 -44 -90 -57 -33 -10 -70 -14 -90 -10 -31 5 -32 8 -22 28 20 36 81 107 103
119 11 6 57 13 101 16 44 2 82 6 84 8 2 2 7 4 10 4 3 0 -10 -15 -29 -34z
m-292 -26 c-7 -10 -14 -17 -17 -15 -4 4 18 35 25 35 2 0 -1 -9 -8 -20z m2254
-30 c12 -11 19 -20 16 -20 -11 0 -78 30 -78 35 0 13 43 3 62 -15z m-2491 -92
c6 -24 21 -60 35 -81 14 -21 24 -48 21 -60 -3 -19 -4 -18 -11 8 -5 17 -21 47
-37 67 -22 27 -29 48 -29 79 0 51 8 46 21 -13z m405 -13 c-11 -8 -31 -15 -45
-14 -23 1 -22 2 7 9 18 4 36 10 39 14 4 3 9 6 12 6 3 0 -3 -7 -13 -15z m2144
3 c0 9 20 -21 20 -31 0 -9 -56 19 -65 33 -4 7 2 7 19 0 14 -5 26 -6 26 -2z
m-2579 -55 c44 -51 54 -98 39 -190 -6 -43 -14 -82 -17 -86 -8 -13 -42 23 -72
73 -21 37 -26 56 -25 110 1 38 9 78 18 95 9 17 16 37 17 45 0 13 1 13 6 0 3
-8 19 -30 34 -47z m324 37 c18 -8 18 -9 -5 -9 -36 -1 -97 -34 -123 -67 -26
-34 -62 -110 -72 -153 -3 -17 -11 -31 -16 -31 -12 0 -8 17 27 117 27 76 76
133 114 133 10 0 22 5 25 10 7 12 23 12 50 0z m88 -38 c-7 -4 -24 -34 -38 -65
-14 -32 -38 -69 -53 -82 -23 -21 -134 -65 -163 -65 -20 0 52 151 86 180 9 7
37 19 63 26 52 14 124 18 105 6z m-81 -234 c-7 -7 -12 -36 -12 -65 0 -63 -25
-130 -51 -138 -20 -7 -122 -84 -127 -97 -12 -28 -16 3 -12 75 8 119 46 173
143 208 21 7 43 19 49 26 6 8 13 11 16 8 3 -3 0 -11 -6 -17z m-133 -21 c-39
-26 -83 -88 -98 -138 -6 -20 -11 -66 -11 -102 0 -36 -5 -69 -10 -72 -7 -4 -10
40 -8 136 l3 143 34 20 c29 16 70 29 115 35 5 0 -6 -9 -25 -22z m-257 -34 c60
-63 65 -74 67 -170 2 -95 -2 -98 -66 -57 -43 28 -77 83 -67 109 3 8 2 27 -4
43 -9 27 5 122 18 122 3 0 26 -21 52 -47z m862 -118 l50 -35 -99 0 c-54 0 -96
2 -93 5 12 12 83 64 88 65 3 0 27 -16 54 -35z m-757 -137 c-2 -18 -4 -4 -4 32
0 36 2 50 4 33 2 -18 2 -48 0 -65z m683 45 c0 -28 -3 -33 -25 -33 -22 0 -25 5
-25 33 0 28 3 32 25 32 22 0 25 -4 25 -32z m100 -4 c0 -26 -4 -29 -30 -29 -27
0 -30 3 -30 33 0 32 2 33 30 29 25 -4 30 -9 30 -33z m-603 -24 c-76 -73 -90
-106 -81 -198 4 -40 15 -90 26 -112 12 -26 16 -50 12 -69 l-6 -30 -13 35 c-7
19 -19 50 -26 69 -7 19 -19 51 -28 70 -8 19 -17 60 -19 90 -4 55 -4 56 39 93
128 109 194 145 96 52z m-248 -45 c49 -27 83 -81 95 -150 5 -34 5 -34 -17 12
-38 76 -73 114 -131 141 -31 15 -56 31 -56 36 0 5 -3 17 -7 27 -5 13 4 10 32
-12 21 -16 59 -40 84 -54z m345 27 c20 -53 20 -71 -1 -133 -17 -52 -89 -174
-103 -174 -9 0 -37 91 -46 151 -4 30 -1 55 6 70 13 25 111 129 121 129 4 0 14
-19 23 -43z m616 -24 c0 -16 9 -48 20 -72 24 -51 25 -77 6 -84 -10 -4 -16 8
-21 49 -3 29 -11 56 -16 59 -12 8 -12 75 1 75 6 0 10 -12 10 -27z m60 -12 c0
-21 7 -52 15 -67 18 -36 19 -70 2 -77 -9 -3 -13 5 -14 27 -1 18 -8 54 -17 81
-17 48 -16 75 4 75 5 0 10 -17 10 -39z m50 15 c0 -14 5 -37 11 -53 22 -53 28
-103 13 -103 -8 0 -14 8 -14 18 0 9 -9 46 -20 81 -10 35 -17 68 -14 73 10 16
24 7 24 -16z m53 4 c-3 -11 4 -42 16 -69 23 -53 27 -91 11 -91 -5 0 -10 9 -10
20 0 10 -9 42 -20 70 -23 60 -25 90 -6 90 9 0 12 -7 9 -20z m57 -14 c0 -18 7
-47 15 -62 17 -33 20 -84 5 -84 -5 0 -10 11 -10 25 0 14 -7 42 -15 62 -17 40
-20 93 -5 93 6 0 10 -15 10 -34z m50 10 c0 -13 9 -46 20 -72 23 -52 23 -85 1
-92 -10 -3 -12 1 -8 17 3 12 -3 46 -14 76 -21 60 -24 95 -9 95 6 0 10 -11 10
-24z m63 -13 c3 -21 10 -57 17 -80 7 -24 9 -51 5 -60 -6 -14 -10 -11 -15 17
-4 19 -14 60 -23 90 -8 30 -13 58 -10 63 10 17 21 4 26 -30z m52 0 c3 -21 14
-60 22 -86 14 -42 14 -50 2 -58 -11 -7 -15 2 -19 39 -3 26 -11 57 -18 69 -14
25 -16 73 -3 73 5 0 12 -17 16 -37z m53 25 c-3 -7 2 -33 10 -58 28 -89 31
-108 16 -114 -10 -4 -14 2 -14 19 0 13 -9 49 -21 80 -11 31 -18 62 -15 70 7
18 29 20 24 3z m52 -15 c0 -16 9 -48 20 -72 24 -52 25 -77 5 -85 -11 -4 -15 2
-15 27 -1 18 -7 50 -15 72 -17 47 -19 85 -5 85 6 0 10 -12 10 -27z m60 -10 c1
-21 7 -49 15 -63 18 -31 19 -76 3 -83 -9 -3 -14 7 -15 30 -1 18 -9 54 -19 78
-16 44 -14 75 6 75 5 0 10 -17 10 -37z m50 13 c0 -13 9 -45 20 -71 24 -56 26
-85 5 -85 -8 0 -14 3 -13 8 3 12 -21 112 -33 133 -10 20 -5 39 12 39 5 0 9
-11 9 -24z m60 -10 c0 -18 7 -50 15 -69 17 -42 20 -77 5 -77 -5 0 -10 8 -10
18 0 11 -9 45 -20 78 -20 58 -20 84 0 84 5 0 10 -15 10 -34z m50 10 c0 -14 5
-37 11 -53 22 -53 28 -103 13 -103 -9 0 -14 11 -14 29 0 16 -7 45 -15 64 -17
41 -20 87 -5 87 6 0 10 -11 10 -24z m56 -8 c1 -18 9 -54 19 -79 12 -30 16 -52
10 -65 -8 -17 -9 -17 -12 6 -2 14 -13 51 -25 82 -19 54 -19 88 -1 88 4 0 8
-15 9 -32z m56 0 c3 -18 11 -54 18 -79 8 -27 10 -54 5 -65 -6 -15 -10 -9 -16
27 -4 26 -12 56 -18 67 -13 25 -15 82 -2 82 5 0 11 -15 13 -32z m48 15 c0 -10
9 -42 20 -71 24 -62 25 -88 5 -96 -11 -4 -15 2 -15 27 0 18 -7 50 -15 72 -17
47 -19 85 -5 85 6 0 10 -8 10 -17z m60 -7 c0 -14 5 -37 11 -53 22 -55 28 -97
16 -105 -8 -5 -15 10 -23 45 -7 29 -17 69 -22 89 -5 20 -7 39 -4 42 12 13 22
5 22 -18z m55 -17 c4 -22 13 -53 21 -67 18 -35 18 -68 -1 -76 -12 -4 -15 4
-15 37 -1 23 -7 53 -15 67 -16 28 -20 80 -6 80 5 0 12 -18 16 -41z m85 -106
c4 -18 6 -33 5 -33 -2 0 -10 -3 -18 -6 -12 -4 -14 0 -10 15 3 12 -4 49 -17 82
-12 34 -19 68 -14 77 7 17 33 -49 54 -135z m23 123 c-3 -13 5 -45 16 -71 22
-51 27 -85 11 -85 -5 0 -14 19 -20 43 -6 23 -15 55 -20 71 -14 41 -12 66 4 66
9 0 12 -8 9 -24z m57 -10 c0 -18 7 -47 15 -62 17 -33 20 -84 5 -84 -5 0 -10 8
-10 18 0 9 -9 46 -20 80 -19 62 -19 82 1 82 5 0 9 -15 9 -34z m50 10 c0 -13 9
-45 20 -71 24 -56 26 -85 4 -85 -8 0 -12 5 -9 10 4 6 -3 37 -14 70 -23 66 -27
100 -11 100 6 0 10 -11 10 -24z m60 -7 c0 -17 8 -53 17 -78 10 -30 13 -55 8
-67 -6 -16 -9 -12 -16 21 -4 22 -12 53 -18 68 -14 35 -14 87 -1 87 6 0 10 -14
10 -31z m50 6 c0 -14 7 -42 15 -62 17 -41 20 -89 5 -98 -6 -4 -10 8 -10 28 0
19 -7 51 -15 70 -17 41 -20 87 -5 87 6 0 10 -11 10 -25z m-2350 -25 c57 -15
113 -83 144 -178 15 -43 22 -80 17 -85 -10 -10 -81 7 -124 30 -33 17 -64 79
-77 156 -5 28 -12 68 -15 87 -5 28 -4 31 5 18 6 -10 28 -22 50 -28z m930 -77
c0 -43 -4 -73 -8 -67 -4 8 -34 11 -79 9 l-73 -2 0 68 0 69 80 0 80 0 0 -77z
m1837 -160 c-11 -24 -11 -23 -30 24 -10 26 -24 55 -30 63 -6 8 8 -2 30 -24 37
-35 40 -41 30 -63z m-1982 58 c-3 -6 -11 -11 -17 -11 -6 0 -6 6 2 15 14 17 26
13 15 -4z m44 -12 c-19 -27 -21 -39 -16 -102 4 -40 9 -84 13 -99 5 -21 3 -28
-8 -28 -17 0 -17 0 -24 115 -5 82 -4 93 16 118 30 37 47 34 19 -4z m50 -8
c-23 -31 -23 -64 -3 -183 4 -25 3 -38 -5 -38 -16 0 -25 46 -26 132 0 67 3 79
24 102 32 34 39 26 10 -13z m116 9 c-25 -27 -30 -103 -12 -172 11 -44 12 -58
3 -58 -14 0 -36 97 -36 157 0 30 7 50 26 73 15 17 29 28 32 25 3 -2 -3 -14
-13 -25z m105 -6 c-20 -31 -22 -45 -17 -102 4 -37 9 -79 13 -94 3 -16 2 -28
-3 -28 -11 0 -33 102 -33 154 0 40 14 74 39 93 24 19 24 16 1 -23z m58 9 c-29
-34 -31 -143 -3 -215 5 -12 2 -18 -7 -18 -8 0 -15 6 -16 13 0 6 -6 47 -13 89
-12 77 -12 78 15 119 15 22 30 38 33 35 4 -3 -1 -14 -9 -23z m106 -4 c-22 -24
-25 -112 -7 -186 8 -33 7 -43 -2 -43 -16 0 -39 128 -32 176 3 20 16 47 28 60
28 29 40 22 13 -7z m62 6 c-29 -30 -32 -76 -10 -197 4 -25 3 -38 -4 -38 -17 0
-32 67 -32 139 0 57 3 68 27 93 14 15 29 26 31 23 2 -2 -3 -11 -12 -20z m48
-6 c-21 -23 -23 -77 -9 -176 10 -72 -8 -68 -23 5 -20 99 -15 138 26 185 8 9
17 15 20 12 3 -3 -3 -14 -14 -26z m54 -5 c-17 -30 -20 -45 -15 -102 4 -37 9
-79 13 -94 5 -22 3 -28 -11 -28 -11 0 -15 5 -12 14 3 8 2 30 -4 48 -18 61 -13
134 12 167 31 42 43 39 17 -5z m58 7 c-9 -10 -19 -34 -22 -52 -6 -33 7 -124
21 -161 5 -12 2 -18 -8 -18 -11 0 -18 21 -27 84 -6 47 -9 95 -5 108 8 26 46
71 53 63 3 -3 -2 -13 -12 -24z m105 -5 c-25 -39 -27 -98 -7 -173 11 -41 11
-53 2 -53 -14 0 -36 97 -36 157 0 30 7 50 26 72 34 41 41 39 15 -3z m108 -7
c-18 -33 -21 -51 -16 -102 4 -34 9 -74 13 -89 3 -16 2 -28 -3 -28 -11 0 -33
103 -33 157 0 30 7 50 26 72 35 41 38 39 13 -10z m62 17 c-21 -23 -23 -31 -18
-103 3 -43 8 -90 12 -105 11 -42 -11 -34 -26 9 -6 20 -12 67 -13 104 -1 58 2
71 23 93 14 14 29 26 34 26 6 0 0 -11 -12 -24z m57 0 c-25 -18 -31 -76 -18
-156 11 -65 9 -92 -6 -78 -3 3 -11 35 -19 71 -10 49 -11 76 -3 104 10 39 47
88 57 77 3 -3 -2 -11 -11 -18z m41 -20 c-22 -38 -22 -38 0 -168 6 -35 5 -48
-4 -48 -16 0 -39 129 -31 173 6 33 43 93 53 84 2 -3 -6 -21 -18 -41z m61 12
c-19 -20 -21 -31 -16 -93 3 -38 8 -85 12 -102 4 -22 2 -33 -5 -33 -6 0 -11 11
-11 24 0 14 -4 28 -10 31 -5 3 -10 37 -10 75 0 59 3 73 26 100 15 17 29 29 31
26 3 -3 -5 -15 -17 -28z m50 -12 c-22 -40 -25 -77 -11 -122 19 -61 21 -94 6
-94 -10 0 -15 10 -15 29 0 16 -5 52 -11 79 -14 57 -8 88 22 126 29 37 35 26 9
-18z m60 8 c-20 -31 -22 -45 -17 -102 4 -37 9 -79 13 -94 5 -20 2 -28 -7 -28
-8 0 -15 12 -16 28 0 15 -4 57 -8 94 -7 59 -5 71 15 102 12 20 26 36 32 36 5
0 0 -16 -12 -36z m56 7 c-9 -10 -19 -34 -22 -52 -6 -33 7 -124 21 -161 5 -12
2 -18 -7 -18 -11 0 -18 20 -27 69 -6 39 -11 80 -11 93 0 25 48 103 57 94 4 -3
-1 -14 -11 -25z m109 -1 c-26 -29 -32 -116 -11 -176 19 -57 19 -54 3 -54 -15
0 -37 94 -37 157 0 30 7 50 26 73 15 17 29 28 32 25 3 -2 -3 -14 -13 -25z
m109 -1 c-20 -22 -24 -97 -9 -186 11 -66 -9 -51 -24 17 -17 78 -10 144 20 176
27 29 40 23 13 -7z m-1874 12 c0 -5 -15 -31 -33 -57 -77 -113 -70 -231 21
-326 14 -15 22 -31 18 -35 -9 -9 -18 3 -82 101 -24 38 -44 75 -44 82 0 43 34
129 72 182 45 64 48 67 48 53z m610 -23 c-22 -36 -25 -78 -11 -124 18 -57 21
-94 8 -94 -9 0 -18 30 -26 89 -13 87 -13 91 9 125 12 20 26 36 31 36 5 0 0
-15 -11 -32z m166 0 c-18 -25 -20 -96 -6 -168 4 -25 6 -47 4 -49 -9 -9 -17 11
-26 56 -22 126 -22 121 7 159 29 38 48 40 21 2z m344 28 c0 -3 -10 -21 -22
-42 -20 -34 -20 -40 -9 -103 7 -36 15 -74 18 -83 3 -12 -1 -18 -11 -18 -11 0
-16 9 -16 27 0 15 -5 52 -11 82 -11 51 -10 60 10 99 12 23 26 42 31 42 6 0 10
-2 10 -4z m102 -9 c-25 -29 -32 -104 -17 -169 14 -62 12 -86 -5 -58 -14 22
-33 148 -26 173 3 12 15 32 26 45 22 23 40 31 22 9z m488 -11 c-23 -29 -29
-86 -15 -154 14 -64 12 -90 -4 -64 -4 6 -13 46 -21 88 -12 70 -12 79 5 108 19
32 36 48 44 41 2 -3 -2 -11 -9 -19z m104 -3 c-17 -34 -18 -107 -2 -168 12 -44
5 -72 -12 -45 -14 23 -32 140 -25 170 5 24 38 70 50 70 2 0 -3 -12 -11 -27z
m-1729 -58 c37 -79 32 -137 -23 -258 l-26 -59 -24 29 c-77 94 -82 221 -13 298
10 11 22 30 26 43 9 31 27 15 60 -53z m408 32 c-16 -32 -14 -60 14 -174 4 -16
1 -23 -10 -23 -10 0 -17 14 -21 43 -3 23 -8 60 -12 83 -6 44 18 120 36 109 6
-4 4 -18 -7 -38z m1977 30 c0 -2 -13 -16 -30 -32 -16 -16 -30 -24 -30 -17 0
13 39 52 52 52 4 0 8 -1 8 -3z m-2143 -74 c0 -38 4 -87 8 -110 11 -65 -9 -52
-23 15 -13 64 -15 105 -6 140 11 41 20 23 21 -45z m-543 15 c14 -28 15 -50 1
-36 -7 7 -25 68 -20 68 2 0 11 -14 19 -32z m491 -30 c0 -35 4 -80 9 -100 5
-26 5 -38 -3 -38 -22 0 -50 162 -31 185 21 25 25 17 25 -47z m-616 -8 c82 0
143 -49 214 -168 48 -82 25 -76 -31 9 -75 111 -91 125 -158 139 -85 17 -93 19
-114 43 -34 36 -22 40 22 8 23 -17 53 -31 67 -31z m553 12 c-2 -21 3 -62 12
-90 l15 -52 -25 0 c-24 0 -24 2 -24 83 0 46 3 87 7 90 14 15 18 5 15 -31z
m-589 -52 c66 0 157 -50 157 -86 0 -6 7 -17 16 -25 14 -11 54 -81 54 -93 0
-13 -156 -2 -184 13 -63 33 -100 87 -116 169 -5 26 -12 56 -16 67 -5 14 2 10
23 -12 23 -25 40 -33 66 -33z m2672 -18 c-3 -8 -5 -18 -5 -23 0 -24 -18 -5
-28 30 -18 59 -14 69 13 36 13 -16 22 -36 20 -43z m101 -7 c-21 -16 -32 -13
-21 4 3 6 14 11 23 11 15 -1 15 -2 -2 -15z m-2270 -196 c-21 -80 -20 -117 4
-164 11 -22 20 -40 20 -42 0 -1 -16 13 -36 31 -35 32 -37 36 -32 90 3 31 1 56
-3 56 -4 0 7 32 24 72 27 59 33 67 35 45 2 -15 -4 -54 -12 -88z m2204 61 c-14
-10 -27 -17 -29 -15 -8 8 22 35 38 35 12 0 10 -5 -9 -20z m-2078 -59 c29 -27
40 -47 49 -90 10 -49 6 -187 -5 -199 -8 -8 -84 50 -96 73 -7 14 -17 25 -20 25
-8 0 -25 41 -34 81 -3 14 1 52 9 83 8 31 15 66 15 78 0 21 0 21 23 2 12 -10
39 -34 59 -53z m-518 -23 c3 3 6 0 6 -7 0 -14 -47 -7 -64 10 -6 5 3 5 21 0 18
-5 34 -7 37 -3z m270 -90 c25 -31 60 -66 77 -78 16 -12 28 -24 26 -27 -9 -8
-81 44 -122 87 -59 63 -114 100 -149 101 -29 1 -30 1 -6 8 45 12 123 -28 174
-91z m2276 64 c0 -10 -45 -32 -63 -32 -16 1 34 39 51 40 6 0 12 -4 12 -8z
m-2582 -17 c17 -13 26 -14 43 -4 30 16 92 13 126 -5 36 -19 159 -143 150 -152
-13 -13 -133 -16 -177 -4 -48 13 -127 85 -163 148 -20 35 -13 40 21 17z m692
-85 c0 -6 8 -14 18 -18 11 -4 44 -23 75 -42 84 -52 112 -123 91 -229 -8 -38
-24 -39 -90 -6 -74 37 -98 84 -104 208 -3 53 -2 97 3 97 4 0 7 -5 7 -10z
m1800 -19 c0 -5 -8 -11 -17 -15 -10 -3 -24 -9 -31 -12 -11 -5 -11 -3 0 15 13
21 48 30 48 12z m-1834 -173 c8 -25 22 -52 30 -58 26 -22 15 -31 -16 -13 -16
9 -30 25 -30 34 0 9 -2 43 -4 75 -2 32 -2 48 1 34 2 -14 11 -46 19 -72z m-267
81 c24 -5 73 -31 110 -56 89 -62 91 -64 51 -56 -19 3 -58 26 -88 50 -29 24
-63 43 -75 43 -12 1 -35 7 -52 15 -38 17 -11 19 54 4z m2011 -17 c0 -4 -21
-15 -46 -24 l-46 -16 23 24 c21 22 69 34 69 16z m-1830 -42 c0 -15 -5 -12 -26
11 -19 22 -19 22 4 10 12 -6 22 -16 22 -21z m-159 -9 c46 -24 89 -59 89 -72 0
-22 -68 -43 -140 -43 -82 1 -112 14 -194 86 l-39 34 35 -4 c21 -2 47 3 64 12
40 23 128 16 185 -13z m1899 -51 c0 -4 -12 -10 -27 -13 -16 -3 -37 -9 -48 -13
-18 -7 -18 -5 3 18 16 18 30 24 47 20 14 -2 25 -8 25 -12z m-1705 -56 c22 -4
62 -20 90 -36 27 -16 69 -38 93 -50 23 -12 42 -28 42 -35 0 -19 -10 -16 -55
17 -82 61 -194 97 -260 85 l-30 -6 25 20 c14 11 32 19 40 16 8 -2 33 -7 55
-11z m-140 -34 c-3 -5 -12 -10 -18 -10 -7 0 -6 4 3 10 19 12 23 12 15 0z
m1725 -2 c0 -4 -1 -8 -3 -8 -1 0 -17 -4 -36 -10 -32 -9 -33 -9 -16 10 16 18
55 24 55 8z m-1765 -8 c3 -5 1 -10 -4 -10 -6 0 -11 5 -11 10 0 6 2 10 4 10 3
0 8 -4 11 -10z m160 -11 c22 -5 48 -11 57 -14 45 -10 153 -84 141 -96 -18 -18
-128 -49 -172 -49 -50 0 -71 11 -137 71 -23 20 -52 40 -64 44 -20 6 -13 11 46
30 83 27 79 27 129 14z m269 -25 c5 -13 3 -14 -6 -7 -7 6 -20 13 -28 16 -10 4
-8 6 6 6 12 1 25 -6 28 -15z m1236 -44 c0 -5 -12 -10 -26 -10 -14 0 -23 4 -19
10 3 6 15 10 26 10 10 0 19 -4 19 -10z m-932 -156 c-2 -44 -7 -79 -13 -79 -11
0 -20 139 -10 163 13 36 26 -9 23 -84z m60 0 c-2 -44 -7 -79 -13 -79 -11 0
-20 139 -10 163 13 36 26 -9 23 -84z m60 0 c-2 -44 -7 -79 -13 -79 -11 0 -20
139 -10 163 13 36 26 -9 23 -84z m62 5 c0 -64 -3 -79 -15 -79 -12 0 -15 15
-15 78 0 43 3 82 6 85 17 16 24 -10 24 -84z m120 0 c0 -64 -3 -79 -15 -79 -12
0 -15 16 -15 85 0 71 2 83 15 79 12 -5 15 -24 15 -85z m50 0 c0 -57 -4 -88
-10 -84 -11 7 -14 158 -3 168 12 13 13 7 13 -84z m60 6 c0 -50 -4 -85 -10 -85
-11 0 -14 152 -3 163 12 13 13 7 13 -78z m394 76 c3 -5 -6 -11 -21 -14 -26 -5
-26 -4 -8 9 22 17 22 17 29 5z m-564 -81 c0 -64 -3 -80 -15 -80 -12 0 -15 16
-15 80 0 64 3 80 15 80 12 0 15 -16 15 -80z m424 -1 c-27 -11 -44 -11 -44 0 0
11 40 20 54 12 5 -2 1 -8 -10 -12z"/>
<path d="M2534 4304 c-52 -15 -102 -41 -137 -70 -16 -13 -34 -24 -42 -24 -7 0
-35 18 -61 41 -67 56 -84 61 -143 43 -61 -18 -77 -26 -171 -91 -85 -58 -198
-154 -231 -197 -13 -16 -46 -68 -75 -115 l-52 -86 201 -6 c111 -3 529 -7 930
-8 600 -1 727 1 727 12 0 19 -39 137 -58 172 -18 36 -64 95 -74 95 -4 0 -49
26 -100 58 -51 32 -128 75 -170 96 l-78 37 -39 -21 c-22 -11 -52 -36 -67 -55
-31 -40 -62 -45 -90 -14 -29 32 -165 125 -199 136 -21 7 -42 6 -71 -3z"/>
<path d="M2995 3740 c-80 -11 -169 -39 -290 -90 -55 -23 -116 -46 -135 -50
-147 -34 -186 -40 -271 -40 -52 0 -122 5 -155 11 -56 10 -188 51 -226 71 -10
5 -18 5 -18 1 0 -9 81 -41 165 -66 91 -28 236 -40 322 -27 111 16 224 45 296
76 112 47 251 95 297 102 25 4 97 6 160 5 93 -1 131 -6 198 -27 46 -14 99 -35
117 -46 34 -21 60 -27 51 -11 -7 11 -125 59 -191 77 -62 18 -240 25 -320 14z"/>
<path d="M3040 3712 c-78 -8 -213 -45 -285 -78 -27 -12 -90 -36 -139 -53 -49
-17 -92 -34 -95 -37 -13 -13 113 21 134 36 6 4 28 13 50 20 22 7 45 16 50 20
45 33 272 80 387 80 69 0 224 -32 242 -50 5 -5 17 -10 26 -10 8 0 32 -9 53
-20 40 -22 51 -25 43 -11 -6 10 -140 63 -201 80 -103 28 -169 34 -265 23z"/>
<path d="M2980 3665 c-77 -14 -150 -39 -276 -94 -39 -16 -118 -42 -175 -57
-87 -23 -125 -27 -234 -27 -71 0 -146 3 -165 7 -31 6 -33 5 -15 -6 15 -9 65
-13 185 -12 l165 2 129 42 c71 23 143 50 160 59 31 18 154 61 191 68 11 2 74
7 141 10 104 4 132 2 205 -17 46 -13 113 -36 148 -52 89 -39 88 -28 -1 14
-152 73 -294 92 -458 63z"/>
<path d="M3010 3630 c-14 -5 16 -6 68 -3 118 8 268 -24 385 -80 22 -10 41 -16
43 -14 8 8 -120 60 -206 84 -87 24 -235 31 -290 13z"/>
<path d="M2865 3599 c-69 -23 -172 -63 -231 -90 -83 -37 -183 -53 -334 -54
-156 0 -242 15 -347 62 -72 31 -67 15 5 -19 93 -43 182 -60 332 -61 155 0 245
18 403 82 88 36 228 84 272 94 13 3 9 5 -10 5 -16 0 -57 -8 -90 -19z"/>
<path d="M1940 3586 c14 -7 36 -16 50 -20 14 -3 7 3 -15 13 -45 22 -73 27 -35
7z"/>
<path d="M1905 3561 c15 -15 142 -61 168 -60 12 0 3 6 -23 13 -25 7 -70 23
-100 35 -30 12 -50 18 -45 12z"/>
<path d="M3325 3560 c27 -12 43 -12 25 0 -8 5 -22 9 -30 9 -10 0 -8 -3 5 -9z"/>
<path d="M2030 3551 c35 -20 190 -43 283 -42 54 0 101 2 105 5 4 2 25 7 46 10
61 10 58 19 -4 12 -169 -19 -244 -18 -329 3 -90 23 -128 27 -101 12z"/>
<path d="M3370 3553 c0 -10 130 -67 137 -60 2 3 -22 15 -54 27 -32 13 -64 28
-70 33 -8 6 -13 6 -13 0z"/>
<path d="M2170 2670 c-13 -25 0 -53 35 -76 47 -31 17 -57 -35 -31 -29 15 -30
15 -30 -7 0 -12 7 -32 16 -45 15 -20 23 -23 62 -18 l46 5 107 -101 107 -101
-40 -47 c-55 -66 -40 -85 21 -25 l46 45 48 -40 c26 -23 51 -39 54 -36 3 3 -11
29 -32 57 l-38 51 74 68 c138 126 142 130 172 124 46 -9 72 3 86 42 7 20 11
38 9 41 -3 2 -19 -3 -37 -12 -17 -9 -39 -13 -48 -10 -14 6 -10 13 20 44 39 40
45 60 25 80 -22 22 -78 8 -78 -20 0 -4 7 -5 15 -2 19 8 19 0 0 -36 -28 -54
-52 -29 -29 29 8 18 14 35 14 37 0 1 -15 -2 -32 -7 -44 -12 -60 -36 -57 -84 2
-35 -4 -49 -39 -94 -23 -29 -60 -79 -83 -112 l-42 -59 -40 58 c-22 31 -60 79
-84 106 -39 44 -43 53 -43 101 0 57 -15 79 -61 87 -20 4 -25 1 -24 -14 1 -10
7 -24 13 -30 7 -7 12 -18 12 -25 0 -22 -27 -15 -44 12 -20 30 -20 35 0 35 14
0 14 3 4 15 -18 21 -57 19 -70 -5z"/>
<path d="M2490 2645 c0 -9 -6 -12 -15 -9 -41 16 -75 -89 -37 -117 14 -11 15
-11 5 1 -30 33 0 111 39 102 9 -2 18 4 21 15 4 17 5 17 6 0 1 -12 7 -17 19
-15 9 2 25 -5 35 -16 9 -10 19 -17 22 -14 10 10 -35 50 -50 44 -9 -3 -15 0
-15 9 0 8 -7 15 -15 15 -8 0 -15 -7 -15 -15z"/>
<path d="M2553 2517 c-32 -22 -38 -39 -15 -43 8 -2 8 -1 1 3 -6 3 4 17 23 34
39 33 36 36 -9 6z"/>
<path d="M2468 2481 c-10 -10 -18 -21 -18 -24 0 -4 27 -7 60 -7 33 0 60 3 60
8 0 4 -26 6 -57 5 -49 -2 -55 -1 -35 9 12 6 22 15 22 20 0 13 -13 8 -32 -11z"/>
<path d="M1678 1703 c-22 -5 -30 -30 -18 -53 14 -26 12 -40 -5 -40 -8 0 -15 9
-15 19 0 11 -4 23 -10 26 -6 4 -10 -6 -10 -24 0 -42 32 -59 60 -31 22 22 25
36 10 45 -12 8 -13 35 -1 35 5 0 11 -9 14 -21 6 -22 27 -18 27 5 0 19 -32 43
-52 39z"/>
<path d="M3300 1681 c0 -4 11 -20 25 -35 28 -30 21 -33 -23 -10 -47 23 -59 8
-25 -30 16 -17 36 -40 44 -50 12 -18 12 -19 -1 -11 -8 4 -31 21 -51 37 -62 47
-71 37 -41 -46 17 -47 46 -79 36 -38 -7 25 21 49 39 33 10 -8 17 -7 25 1 17
17 15 29 -10 56 l-23 24 25 -7 c14 -4 31 -12 38 -18 9 -7 16 -7 25 2 8 8 8 14
1 19 -5 4 -23 24 -38 45 -27 35 -46 47 -46 28z m-36 -132 c-8 -13 -24 -1 -24
18 0 13 3 13 15 3 8 -7 12 -16 9 -21z"/>
<path d="M1716 1612 l-35 -47 24 -22 c23 -22 45 -30 45 -17 0 3 -10 14 -22 24
-19 15 -21 21 -10 31 9 10 15 10 24 1 7 -7 19 -12 27 -12 12 0 11 3 -2 18 -18
20 -22 42 -8 42 5 0 14 -7 21 -15 7 -8 16 -15 21 -15 17 0 9 17 -20 38 l-29
21 -36 -47z"/>
<path d="M1791 1568 c-11 -18 -26 -41 -33 -50 -7 -9 -9 -20 -5 -24 4 -4 14 2
23 14 20 29 35 19 28 -17 -5 -22 -2 -32 13 -40 14 -7 23 -7 31 1 15 15 42 -7
42 -33 0 -11 5 -19 10 -19 6 0 10 8 10 18 0 9 7 36 15 60 9 24 13 48 10 53 -4
5 -25 -6 -48 -24 -58 -47 -67 -51 -67 -33 0 9 11 26 25 38 14 12 25 27 25 33
0 12 -41 55 -52 55 -3 0 -15 -15 -27 -32z m49 -32 c-13 -13 -35 7 -25 24 5 8
11 8 21 -1 10 -8 12 -15 4 -23z m66 -61 c-3 -9 -11 -13 -16 -10 -8 5 -7 11 1
21 14 18 24 11 15 -11z"/>
<path d="M3128 1539 c-27 -15 -21 -52 12 -84 24 -23 34 -27 47 -19 29 18 34
60 11 89 -21 27 -42 31 -70 14z m52 -23 c14 -18 10 -58 -7 -63 -16 -6 -47 43
-39 62 7 19 30 19 46 1z"/>
<path d="M1938 1449 c-9 -33 -12 -61 -8 -64 5 -3 20 9 34 26 15 17 28 30 31
28 2 -2 -3 -21 -10 -42 -17 -49 -5 -54 31 -14 48 52 56 65 45 72 -6 3 -20 -9
-32 -27 l-21 -33 6 43 c7 49 -3 54 -33 15 -27 -33 -37 -24 -17 15 12 24 13 31
3 35 -9 3 -18 -14 -29 -54z"/>
<path d="M3070 1505 c0 -3 9 -23 20 -45 24 -47 24 -52 6 -48 -8 2 -16 -1 -18
-7 -2 -5 7 -11 20 -13 34 -5 39 24 12 75 -19 37 -40 56 -40 38z"/>
<path d="M3019 1433 c27 -52 48 -79 56 -71 4 3 -5 24 -19 47 -14 22 -26 45
-26 51 0 5 -7 10 -15 10 -13 0 -12 -6 4 -37z"/>
<path d="M2955 1438 c-11 -6 -21 -12 -22 -13 -6 -4 49 -105 55 -102 43 19 60
31 56 39 -3 4 -14 3 -25 -2 -20 -11 -39 -6 -39 10 0 5 9 12 20 15 11 4 18 11
15 16 -4 5 -13 5 -24 -1 -18 -9 -31 -5 -31 11 0 4 9 11 20 14 22 7 27 25 8 25
-7 0 -22 -6 -33 -12z"/>
<path d="M2051 1393 c-22 -26 -41 -51 -41 -55 0 -11 18 -10 25 2 12 19 36 10
47 -17 11 -26 12 -24 19 37 5 36 5 68 0 73 -5 5 -27 -13 -50 -40z m33 -17 c-3
-9 -10 -13 -16 -10 -5 3 -4 12 3 20 15 18 22 13 13 -10z"/>
<path d="M2140 1378 c-26 -72 -29 -88 -16 -88 6 0 17 19 23 43 7 23 15 50 18
60 4 9 3 17 -3 17 -6 0 -15 -15 -22 -32z"/>
<path d="M2873 1404 c-16 -7 -17 -36 -1 -52 7 -7 22 -12 35 -12 24 0 31 -14
13 -25 -6 -4 -17 -1 -25 5 -12 10 -15 9 -15 -3 0 -22 17 -30 46 -23 45 12 26
76 -23 76 -13 0 -23 5 -23 11 0 7 10 9 26 5 19 -5 25 -3 22 6 -5 14 -35 20
-55 12z"/>
<path d="M2214 1355 c-5 -19 0 -30 17 -43 12 -10 19 -24 15 -30 -9 -14 -36 -4
-36 14 0 8 -4 14 -10 14 -16 0 -11 -26 9 -44 23 -21 49 -11 58 21 4 20 0 30
-18 44 -13 10 -20 21 -16 25 4 4 16 -1 27 -11 19 -18 20 -17 20 2 0 39 -57 45
-66 8z"/>
<path d="M2795 1343 l6 -38 -25 28 c-26 28 -48 36 -42 15 2 -7 10 -34 16 -60
7 -26 16 -45 21 -42 4 2 4 16 -2 31 -14 36 -3 41 22 10 36 -47 48 -35 31 33
-16 66 -37 83 -27 23z"/>
<path d="M2283 1307 c-5 -34 -9 -63 -9 -63 1 -1 18 -4 39 -8 42 -8 53 10 12
20 -36 9 -32 34 5 34 17 0 30 5 30 10 0 6 -11 10 -25 10 -15 0 -25 6 -25 14 0
10 9 14 26 13 15 -1 29 4 32 12 2 8 0 11 -5 8 -6 -4 -24 -2 -41 2 l-30 9 -9
-61z"/>
<path d="M2376 1304 c-8 -65 -8 -84 4 -84 6 0 10 11 10 25 0 32 17 32 31 1 14
-30 50 -41 65 -21 15 19 44 19 44 0 0 -8 6 -15 14 -15 12 0 13 6 4 33 -6 17
-12 45 -15 60 -8 44 -34 29 -53 -33 l-18 -55 -12 27 c-10 22 -10 30 -1 42 17
20 4 56 -19 56 -10 0 -25 2 -33 6 -11 4 -16 -7 -21 -42z m62 4 c-7 -19 -38
-22 -38 -4 0 10 9 16 21 16 12 0 19 -5 17 -12z m82 -38 c0 -5 -4 -10 -10 -10
-5 0 -10 5 -10 10 0 6 5 10 10 10 6 0 10 -4 10 -10z"/>
<path d="M2659 1323 c0 -16 -2 -45 -4 -65 -2 -21 0 -38 5 -38 6 0 10 6 10 14
0 13 20 26 41 26 5 0 9 -7 9 -15 0 -8 7 -15 15 -15 12 0 8 13 -16 60 -33 64
-59 78 -60 33z m41 -39 c0 -14 -12 -19 -23 -8 -9 9 4 35 14 28 5 -3 9 -12 9
-20z"/>
<path d="M2576 1327 c-15 -11 -17 -17 -7 -35 6 -12 18 -22 26 -22 18 0 28 -17
19 -31 -4 -8 -9 -8 -17 0 -16 16 -37 13 -31 -4 7 -18 36 -28 58 -19 21 8 22
63 1 69 -50 16 -49 15 -35 28 10 9 13 9 17 0 5 -14 33 -18 33 -5 0 12 -22 32
-35 32 -6 0 -19 -6 -29 -13z"/>
</g>
</svg>
